<svg xmlns="http://www.w3.org/2000/svg" version="1.0" width="1280.000000pt" height="853.000000pt" viewBox="0 0 1280.000000 853.000000" preserveAspectRatio="xMidYMid meet">
<metadata>
Created by potrace 1.15, written by Peter Selinger 2001-2017
</metadata>
<g transform="translate(0.000000,853.000000) scale(0.100000,-0.100000)" fill="#000000" stroke="none">
<path d="M4034 6169 c-53 -26 -68 -43 -92 -104 -17 -45 -18 -71 -15 -275 3 -147 0 -247 -8 -290 -11 -58 -17 -145 -22 -290 -2 -58 37 -237 67 -309 79 -189 102 -323 64 -384 -25 -41 -38 -78 -38 -112 0 -22 -7 -39 -20 -48 -22 -15 -70 -83 -70 -98 0 -6 -9 -22 -20 -36 -11 -14 -20 -37 -20 -51 0 -13 -13 -48 -30 -77 -16 -28 -27 -55 -24 -58 10 -9 -17 -106 -31 -115 -6 -4 -24 -26 -38 -48 -14 -23 -41 -51 -59 -61 -63 -38 -212 -76 -303 -78 -35 -1 -74 -9 -93 -19 -24 -13 -45 -16 -73 -11 -28 5 -47 2 -62 -8 -13 -9 -60 -17 -112 -21 -95 -6 -186 -26 -235 -51 -16 -8 -35 -15 -43 -15 -28 0 -122 -32 -209 -71 -47 -21 -90 -39 -95 -39 -5 0 -72 -25 -148 -55 -96 -38 -157 -69 -197 -100 -32 -25 -61 -45 -64 -45 -3 0 -33 -19 -67 -41 -72 -48 -233 -208 -273 -271 -16 -24 -39 -55 -53 -70 -28 -32 -58 -85 -140 -255 -113 -233 -181 -444 -181 -557 0 -26 -6 -74 -13 -105 -15 -61 -16 -211 -3 -278 8 -38 6 -45 -20 -71 -18 -17 -57 -37 -99 -50 -139 -43 -165 -100 -129 -278 18 -89 31 -117 86 -191 53 -72 85 -102 138 -125 25 -10 56 -30 70 -43 29 -28 178 -81 320 -115 56 -13 101 -30 110 -40 22 -26 183 -56 224 -42 17 6 45 8 61 5 93 -15 188 -22 246 -17 45 4 79 2 105 -7 23 -8 87 -15 154 -16 63 -1 152 -3 198 -5 46 -3 86 0 89 4 2 5 17 7 31 3 15 -3 118 -7 228 -9 111 -2 206 -6 210 -9 22 -12 291 -18 339 -6 63 15 132 20 315 23 80 1 155 6 166 10 13 4 53 -2 95 -13 50 -13 79 -17 91 -10 11 6 41 4 85 -5 65 -13 113 -7 113 15 0 4 8 15 17 24 13 14 28 16 78 10 55 -6 63 -4 87 18 25 23 26 23 49 6 13 -10 38 -18 54 -17 42 1 231 -30 285 -48 25 -8 93 -17 152 -21 105 -6 109 -5 148 20 22 15 53 27 69 27 62 0 121 39 121 80 0 38 -89 148 -260 324 -80 82 -159 164 -177 182 -17 18 -36 49 -43 68 -6 19 -19 38 -28 41 -31 10 -129 197 -184 351 -29 82 -32 99 -32 209 l1 120 40 80 c81 161 123 392 128 710 2 88 7 169 12 181 19 49 176 153 253 169 40 8 160 67 206 102 17 13 42 22 56 21 55 -5 127 40 170 105 33 50 45 88 58 192 5 43 15 84 21 92 16 19 3 115 -22 165 -11 22 -45 69 -75 104 -30 36 -54 69 -54 74 0 5 -13 24 -29 42 -16 18 -37 49 -47 68 -39 73 -65 103 -204 245 -83 84 -172 147 -267 190 -45 20 -63 33 -63 46 0 11 4 19 8 19 9 0 18 17 52 100 12 30 31 72 41 93 22 42 27 156 11 285 -10 76 -18 92 -115 217 -118 152 -196 152 -333 -1 -78 -86 -72 -89 -92 41 -6 39 -21 97 -32 130 -12 33 -24 74 -27 90 -3 17 -13 48 -24 71 -10 22 -19 47 -19 55 0 8 -10 26 -23 41 -12 15 -51 66 -86 113 -35 47 -67 85 -71 85 -4 0 -30 20 -56 44 -113 101 -173 119 -260 75z m196 -4759 c0 -11 9 -24 19 -29 10 -6 24 -25 30 -42 6 -18 23 -47 37 -66 30 -40 22 -41 -66 -13 -34 11 -80 20 -102 20 -22 0 -49 5 -61 12 -12 6 -42 17 -67 23 -41 11 -45 15 -43 40 3 38 48 100 87 119 18 8 41 25 51 37 l20 21 47 -52 c27 -28 48 -60 48 -70z"/>
<path d="M6970 6042 c-12 -10 -26 -36 -30 -57 -11 -49 -27 -113 -46 -179 -17 -60 -18 -101 -1 -129 8 -15 12 -80 13 -212 2 -230 5 -263 39 -339 14 -32 23 -66 20 -77 -3 -10 2 -33 11 -51 10 -18 21 -49 25 -68 18 -82 52 -157 89 -195 33 -35 60 -74 60 -88 0 -2 -19 -9 -42 -16 -24 -7 -63 -25 -88 -39 -25 -15 -61 -34 -80 -43 -63 -30 -135 -104 -171 -175 -35 -69 -103 -143 -165 -178 -18 -11 -38 -31 -44 -46 -6 -15 -22 -33 -35 -40 -14 -7 -27 -20 -30 -29 -3 -9 -20 -25 -37 -36 -18 -11 -43 -36 -55 -55 -13 -19 -37 -50 -53 -68 -35 -41 -51 -106 -57 -232 -3 -85 -2 -99 19 -135 26 -43 84 -89 105 -80 7 3 20 8 28 11 13 5 15 0 9 -33 -6 -38 -4 -42 47 -90 29 -28 76 -63 104 -77 80 -41 204 -86 220 -80 8 4 21 1 29 -5 15 -13 12 -38 -9 -86 -33 -76 -89 -267 -97 -330 -4 -38 -11 -137 -14 -220 -6 -131 -9 -154 -29 -185 -37 -58 -94 -193 -104 -246 -26 -129 -33 -231 -29 -424 l4 -205 36 -82 36 -83 -45 -27 c-54 -33 -77 -55 -120 -115 -69 -95 -90 -202 -45 -240 55 -49 128 -90 161 -92 92 -6 83 1 76 -69 -6 -50 -4 -66 8 -75 10 -8 64 -15 149 -19 73 -3 140 -9 148 -13 19 -10 108 -12 212 -4 75 6 79 7 123 50 25 25 45 53 45 65 0 12 5 39 12 60 l11 39 81 0 c45 0 98 -3 119 -6 42 -8 46 -22 21 -82 -15 -37 -13 -102 5 -131 12 -18 93 -34 161 -30 74 3 108 2 150 -7 58 -13 231 -7 294 10 70 19 102 38 111 66 6 18 15 20 89 20 50 0 87 5 94 12 9 9 20 9 45 1 44 -16 138 -14 162 3 11 8 43 14 71 14 91 0 143 68 144 187 0 78 15 113 52 120 86 17 130 180 132 490 1 128 -1 144 -20 169 -19 26 -20 31 -6 103 25 135 -13 409 -71 516 -13 23 -51 195 -67 300 -17 112 -77 301 -122 383 -51 92 -170 252 -229 308 -40 38 -113 94 -233 182 -25 17 -56 32 -69 32 -14 0 -35 8 -47 18 -20 16 -22 26 -21 127 1 61 4 135 7 166 5 42 2 64 -11 89 -12 23 -15 45 -11 74 3 22 8 67 10 98 6 75 32 114 85 123 22 3 47 15 57 26 9 10 28 19 41 19 34 0 150 39 163 55 6 8 25 17 42 20 17 4 43 22 59 40 16 18 42 35 57 38 19 4 72 50 160 137 106 106 134 140 143 173 13 47 66 157 84 172 15 13 39 90 32 102 -4 6 4 24 17 42 18 24 25 51 30 112 7 78 6 82 -21 122 -15 23 -31 50 -35 59 -8 20 -76 65 -121 81 -44 15 -145 -7 -244 -54 -45 -21 -114 -48 -154 -59 -40 -11 -82 -29 -94 -40 -12 -11 -26 -20 -33 -20 -6 0 -33 -13 -59 -30 -26 -16 -51 -30 -56 -30 -13 0 -122 -67 -190 -116 -66 -49 -179 -159 -196 -191 -20 -38 -128 -176 -169 -217 l-40 -38 -34 23 c-45 31 -48 37 -41 85 4 29 0 54 -14 85 -11 24 -37 100 -57 169 -21 69 -44 134 -51 145 -7 11 -27 56 -44 100 -37 91 -72 151 -189 324 -46 69 -104 161 -129 205 -25 45 -57 94 -70 110 -13 16 -35 51 -49 78 -18 36 -35 54 -59 64 -44 18 -48 18 -75 -4z"/>
</g>
</svg>